<svg width="1693" height="689" viewBox="0 0 1693 689" fill="none" xmlns="http://www.w3.org/2000/svg">
<g style="mix-blend-mode:screen">
<path d="M219.651 233.849H135.78V674.483H219.651V233.849Z" fill="url(#paint0_linear_205_3923)"/>
</g>
<g style="mix-blend-mode:screen">
<path d="M708.691 265.991H658.355V530.446H708.691V265.991Z" fill="url(#paint1_linear_205_3923)"/>
</g>
<g style="mix-blend-mode:screen">
<path d="M601.668 0.0469971H491.847V662.614H601.668V0.0469971Z" fill="url(#paint2_linear_205_3923)"/>
</g>
<g style="mix-blend-mode:screen">
<path d="M1302.47 276.284H1267.57V523.674H1302.47V276.284Z" fill="url(#paint3_linear_205_3923)"/>
</g>
<g style="mix-blend-mode:screen">
<path d="M1099.29 145.575H1054.89V378.853H1099.29V145.575Z" fill="url(#paint4_linear_205_3923)"/>
</g>
<g style="mix-blend-mode:screen">
<path d="M187.83 210.405H119.365V570.108H187.83V210.405Z" fill="url(#paint5_linear_205_3923)"/>
</g>
<g style="mix-blend-mode:screen">
<path d="M1206.18 79.701H1126.56V497.98H1206.18V79.701Z" fill="url(#paint6_linear_205_3923)"/>
</g>
<g style="mix-blend-mode:screen">
<path d="M468.35 122.388H363.599V672.725H468.35V122.388Z" fill="url(#paint7_linear_205_3923)"/>
</g>
<g style="mix-blend-mode:screen">
<path d="M1692.94 286.344H1652.44V573.508H1692.94V286.344Z" fill="url(#paint8_linear_205_3923)"/>
</g>
<g style="mix-blend-mode:screen">
<path d="M176.61 340.986H145.32V505.374H176.61V340.986Z" fill="url(#paint9_linear_205_3923)"/>
</g>
<g style="mix-blend-mode:screen">
<path d="M1641.21 152.839H1564.61V605.837H1641.21V152.839Z" fill="url(#paint10_linear_205_3923)"/>
</g>
<g style="mix-blend-mode:screen">
<path d="M639.925 238.131H604.525V424.111H639.925V238.131Z" fill="url(#paint11_linear_205_3923)"/>
</g>
<g style="mix-blend-mode:screen">
<path d="M426.965 258.032H388.116V462.133H426.965V258.032Z" fill="url(#paint12_linear_205_3923)"/>
</g>
<g style="mix-blend-mode:screen">
<path d="M559.194 344.795H506.121V623.629H559.194V344.795Z" fill="url(#paint13_linear_205_3923)"/>
</g>
<g style="mix-blend-mode:screen">
<path d="M761.037 190.442H714.505V434.917H761.037V190.442Z" fill="url(#paint14_linear_205_3923)"/>
</g>
<g style="mix-blend-mode:screen">
<path d="M1120.44 226.754H1094.13V316.367H1120.44V226.754Z" fill="url(#paint15_linear_205_3923)"/>
</g>
<g style="mix-blend-mode:screen">
<path d="M319.953 258.21H253.511V484.511H319.953V258.21Z" fill="url(#paint16_linear_205_3923)"/>
</g>
<g style="mix-blend-mode:screen">
<path d="M1075.91 91.788H998.639V354.989H1075.91V91.788Z" fill="url(#paint17_linear_205_3923)"/>
</g>
<g style="mix-blend-mode:screen">
<path d="M1414.27 328.893H1374.91V509.803H1414.27V328.893Z" fill="url(#paint18_linear_205_3923)"/>
</g>
<g style="mix-blend-mode:screen">
<path d="M55.1506 362.049H0.600586V547.849H55.1506V362.049Z" fill="url(#paint19_linear_205_3923)"/>
</g>
<g style="mix-blend-mode:screen">
<path d="M925.29 250.87H872.757V471.451H925.29V250.87Z" fill="url(#paint20_linear_205_3923)"/>
</g>
<g style="mix-blend-mode:screen">
<path d="M352.48 395.677H299.297V576.821H352.48V395.677Z" fill="url(#paint21_linear_205_3923)"/>
</g>
<g style="mix-blend-mode:screen">
<path d="M1355.23 67.839H1259.7V506.883H1355.23V67.839Z" fill="url(#paint22_linear_205_3923)"/>
</g>
<g style="mix-blend-mode:screen">
<path d="M1306 295.949H1280.76V411.97H1306V295.949Z" fill="url(#paint23_linear_205_3923)"/>
</g>
<g style="mix-blend-mode:screen">
<path d="M1557.87 259.488H1500.88V521.418H1557.87V259.488Z" fill="url(#paint24_linear_205_3923)"/>
</g>
<g style="mix-blend-mode:screen">
<path d="M1630.36 301.339H1596.75V455.843H1630.36V301.339Z" fill="url(#paint25_linear_205_3923)"/>
</g>
<g style="mix-blend-mode:screen">
<path d="M901.913 279.852H868.536V393.533H901.913V279.852Z" fill="url(#paint26_linear_205_3923)"/>
</g>
<g style="mix-blend-mode:screen">
<path d="M335.969 253.672H248.961V550.016H335.969V253.672Z" fill="url(#paint27_linear_205_3923)"/>
</g>
<g style="mix-blend-mode:screen">
<path d="M841.65 295.213H801.847V430.776H841.65V295.213Z" fill="url(#paint28_linear_205_3923)"/>
</g>
<g style="mix-blend-mode:screen">
<path d="M1430.82 136.615H1419.68V262.392H1430.82V136.615Z" fill="url(#paint29_linear_205_3923)"/>
</g>
<g style="mix-blend-mode:screen">
<path d="M1545 271.653H1519.5V559.436H1545V271.653Z" fill="url(#paint30_linear_205_3923)"/>
</g>
<g style="mix-blend-mode:screen">
<path d="M464.109 378.76H451.908V480.788H464.109V378.76Z" fill="url(#paint31_linear_205_3923)"/>
</g>
<g style="mix-blend-mode:screen">
<path d="M868.733 259.214H857.688V351.584H868.733V259.214Z" fill="url(#paint32_linear_205_3923)"/>
</g>
<g style="mix-blend-mode:screen">
<path d="M209.659 358.294H180.206V604.575H209.659V358.294Z" fill="url(#paint33_linear_205_3923)"/>
</g>
<g style="mix-blend-mode:screen">
<path d="M1481.37 234.744H1453.63V547.851H1481.37V234.744Z" fill="url(#paint34_linear_205_3923)"/>
</g>
<g style="mix-blend-mode:screen">
<path d="M641.105 372.006H630.758V458.541H641.105V372.006Z" fill="url(#paint35_linear_205_3923)"/>
</g>
<g style="mix-blend-mode:screen">
<path d="M266.649 422.51H234.881V688.161H266.649V422.51Z" fill="url(#paint36_linear_205_3923)"/>
</g>
<g style="mix-blend-mode:screen">
<path d="M1385.57 241.662H1370.84V407.9H1385.57V241.662Z" fill="url(#paint37_linear_205_3923)"/>
</g>
<g style="mix-blend-mode:screen">
<path d="M106.846 370.636H72.6533V656.577H106.846V370.636Z" fill="url(#paint38_linear_205_3923)"/>
</g>
<g style="mix-blend-mode:screen">
<path d="M1290.25 298.91H1262.26V614.777H1290.25V298.91Z" fill="url(#paint39_linear_205_3923)"/>
</g>
<g style="mix-blend-mode:screen">
<path d="M1456.94 204.704H1440.16V394.023H1456.94V204.704Z" fill="url(#paint40_linear_205_3923)"/>
</g>
<g style="mix-blend-mode:screen">
<path d="M1374.67 346.196H1348.89V637.065H1374.67V346.196Z" fill="url(#paint41_linear_205_3923)"/>
</g>
<g style="mix-blend-mode:screen">
<path d="M775.06 340.156H762.161V448.022H775.06V340.156Z" fill="url(#paint42_linear_205_3923)"/>
</g>
<g style="mix-blend-mode:screen">
<path d="M1246.46 230.993H1223.91V419.609H1246.46V230.993Z" fill="url(#paint43_linear_205_3923)"/>
</g>
<g style="mix-blend-mode:screen">
<path d="M781.787 296.656H765.371V571.208H781.787V296.656Z" fill="url(#paint44_linear_205_3923)"/>
</g>
<g style="mix-blend-mode:screen">
<path d="M1054.51 317.965H1043.65V499.675H1054.51V317.965Z" fill="url(#paint45_linear_205_3923)"/>
</g>
<g style="mix-blend-mode:screen">
<path d="M353.176 348.253H340.057V567.67H353.176V348.253Z" fill="url(#paint46_linear_205_3923)"/>
</g>
<g style="mix-blend-mode:screen">
<path d="M1206.46 194.547H1200.07V301.36H1206.46V194.547Z" fill="url(#paint47_linear_205_3923)"/>
</g>
<g style="mix-blend-mode:screen">
<path d="M755.638 284.573H747.403V422.31H755.638V284.573Z" fill="url(#paint48_linear_205_3923)"/>
</g>
<g style="mix-blend-mode:screen">
<path d="M649.469 304.556H641.094V444.64H649.469V304.556Z" fill="url(#paint49_linear_205_3923)"/>
</g>
<g style="mix-blend-mode:screen">
<path d="M1165.17 248.256H1155.55V409.161H1165.17V248.256Z" fill="url(#paint50_linear_205_3923)"/>
</g>
<g style="mix-blend-mode:screen">
<path d="M878.093 274.361H869.118V424.435H878.093V274.361Z" fill="url(#paint51_linear_205_3923)"/>
</g>
<g style="mix-blend-mode:screen">
<path d="M308.485 374.42H301.646V488.824H308.485V374.42Z" fill="url(#paint52_linear_205_3923)"/>
</g>
<g style="mix-blend-mode:screen">
<path d="M1572.25 68.371H1552.88V505.654H1572.25V68.371Z" fill="url(#paint53_linear_205_3923)"/>
</g>
<g style="mix-blend-mode:screen">
<path d="M478.685 334.169H462.441V605.857H478.685V334.169Z" fill="url(#paint54_linear_205_3923)"/>
</g>
<g style="mix-blend-mode:screen">
<path d="M1498.06 151.113H1489.02V354.991H1498.06V151.113Z" fill="url(#paint55_linear_205_3923)"/>
</g>
<g style="mix-blend-mode:screen">
<path d="M1539.56 102.773H1527.08V384.25H1539.56V102.773Z" fill="url(#paint56_linear_205_3923)"/>
</g>
<g style="mix-blend-mode:screen">
<path d="M992.918 237.205H976.528V511.335H992.918V237.205Z" fill="url(#paint57_linear_205_3923)"/>
</g>
<g style="mix-blend-mode:screen">
<path d="M1012.52 255.309H1002.9V416.332H1012.52V255.309Z" fill="url(#paint58_linear_205_3923)"/>
</g>
<defs>
<linearGradient id="paint0_linear_205_3923" x1="177.716" y1="233.849" x2="177.716" y2="674.483" gradientUnits="userSpaceOnUse">
<stop stop-color="white" stop-opacity="0.22"/>
<stop offset="1" stop-color="white" stop-opacity="0"/>
</linearGradient>
<linearGradient id="paint1_linear_205_3923" x1="683.523" y1="265.991" x2="683.523" y2="530.446" gradientUnits="userSpaceOnUse">
<stop stop-color="white" stop-opacity="0.22"/>
<stop offset="1" stop-color="white" stop-opacity="0"/>
</linearGradient>
<linearGradient id="paint2_linear_205_3923" x1="546.757" y1="0.0469971" x2="546.757" y2="662.614" gradientUnits="userSpaceOnUse">
<stop stop-color="white" stop-opacity="0.22"/>
<stop offset="1" stop-color="white" stop-opacity="0"/>
</linearGradient>
<linearGradient id="paint3_linear_205_3923" x1="1285.02" y1="276.284" x2="1285.02" y2="523.674" gradientUnits="userSpaceOnUse">
<stop stop-color="white" stop-opacity="0.22"/>
<stop offset="1" stop-color="white" stop-opacity="0"/>
</linearGradient>
<linearGradient id="paint4_linear_205_3923" x1="1077.09" y1="145.575" x2="1077.09" y2="378.853" gradientUnits="userSpaceOnUse">
<stop stop-color="white" stop-opacity="0.22"/>
<stop offset="1" stop-color="white" stop-opacity="0"/>
</linearGradient>
<linearGradient id="paint5_linear_205_3923" x1="153.598" y1="210.405" x2="153.598" y2="570.108" gradientUnits="userSpaceOnUse">
<stop stop-color="white" stop-opacity="0.22"/>
<stop offset="1" stop-color="white" stop-opacity="0"/>
</linearGradient>
<linearGradient id="paint6_linear_205_3923" x1="1166.37" y1="79.701" x2="1166.37" y2="497.98" gradientUnits="userSpaceOnUse">
<stop stop-color="white" stop-opacity="0.22"/>
<stop offset="1" stop-color="white" stop-opacity="0"/>
</linearGradient>
<linearGradient id="paint7_linear_205_3923" x1="415.974" y1="122.388" x2="415.974" y2="672.725" gradientUnits="userSpaceOnUse">
<stop stop-color="white" stop-opacity="0.22"/>
<stop offset="1" stop-color="white" stop-opacity="0"/>
</linearGradient>
<linearGradient id="paint8_linear_205_3923" x1="1672.69" y1="286.344" x2="1672.69" y2="573.508" gradientUnits="userSpaceOnUse">
<stop stop-color="white" stop-opacity="0.22"/>
<stop offset="1" stop-color="white" stop-opacity="0"/>
</linearGradient>
<linearGradient id="paint9_linear_205_3923" x1="160.965" y1="340.986" x2="160.965" y2="505.374" gradientUnits="userSpaceOnUse">
<stop stop-color="white" stop-opacity="0.22"/>
<stop offset="1" stop-color="white" stop-opacity="0"/>
</linearGradient>
<linearGradient id="paint10_linear_205_3923" x1="1602.91" y1="152.839" x2="1602.91" y2="605.837" gradientUnits="userSpaceOnUse">
<stop stop-color="white" stop-opacity="0.22"/>
<stop offset="1" stop-color="white" stop-opacity="0"/>
</linearGradient>
<linearGradient id="paint11_linear_205_3923" x1="622.225" y1="238.131" x2="622.225" y2="424.111" gradientUnits="userSpaceOnUse">
<stop stop-color="white" stop-opacity="0.22"/>
<stop offset="1" stop-color="white" stop-opacity="0"/>
</linearGradient>
<linearGradient id="paint12_linear_205_3923" x1="407.541" y1="258.032" x2="407.541" y2="462.133" gradientUnits="userSpaceOnUse">
<stop stop-color="white" stop-opacity="0.22"/>
<stop offset="1" stop-color="white" stop-opacity="0"/>
</linearGradient>
<linearGradient id="paint13_linear_205_3923" x1="532.658" y1="344.795" x2="532.658" y2="623.629" gradientUnits="userSpaceOnUse">
<stop stop-color="white" stop-opacity="0.22"/>
<stop offset="1" stop-color="white" stop-opacity="0"/>
</linearGradient>
<linearGradient id="paint14_linear_205_3923" x1="737.771" y1="190.442" x2="737.771" y2="434.917" gradientUnits="userSpaceOnUse">
<stop stop-color="white" stop-opacity="0.22"/>
<stop offset="1" stop-color="white" stop-opacity="0"/>
</linearGradient>
<linearGradient id="paint15_linear_205_3923" x1="1107.29" y1="226.754" x2="1107.29" y2="316.367" gradientUnits="userSpaceOnUse">
<stop stop-color="white" stop-opacity="0.22"/>
<stop offset="1" stop-color="white" stop-opacity="0"/>
</linearGradient>
<linearGradient id="paint16_linear_205_3923" x1="286.732" y1="258.21" x2="286.732" y2="484.511" gradientUnits="userSpaceOnUse">
<stop stop-color="white" stop-opacity="0.22"/>
<stop offset="1" stop-color="white" stop-opacity="0"/>
</linearGradient>
<linearGradient id="paint17_linear_205_3923" x1="1037.28" y1="91.788" x2="1037.28" y2="354.989" gradientUnits="userSpaceOnUse">
<stop stop-color="white" stop-opacity="0.22"/>
<stop offset="1" stop-color="white" stop-opacity="0"/>
</linearGradient>
<linearGradient id="paint18_linear_205_3923" x1="1394.59" y1="328.893" x2="1394.59" y2="509.803" gradientUnits="userSpaceOnUse">
<stop stop-color="white" stop-opacity="0.22"/>
<stop offset="1" stop-color="white" stop-opacity="0"/>
</linearGradient>
<linearGradient id="paint19_linear_205_3923" x1="27.8756" y1="362.049" x2="27.8756" y2="547.849" gradientUnits="userSpaceOnUse">
<stop stop-color="white" stop-opacity="0.22"/>
<stop offset="1" stop-color="white" stop-opacity="0"/>
</linearGradient>
<linearGradient id="paint20_linear_205_3923" x1="899.023" y1="250.87" x2="899.023" y2="471.451" gradientUnits="userSpaceOnUse">
<stop stop-color="white" stop-opacity="0.22"/>
<stop offset="1" stop-color="white" stop-opacity="0"/>
</linearGradient>
<linearGradient id="paint21_linear_205_3923" x1="325.888" y1="395.677" x2="325.888" y2="576.821" gradientUnits="userSpaceOnUse">
<stop stop-color="white" stop-opacity="0.22"/>
<stop offset="1" stop-color="white" stop-opacity="0"/>
</linearGradient>
<linearGradient id="paint22_linear_205_3923" x1="1307.46" y1="67.839" x2="1307.46" y2="506.883" gradientUnits="userSpaceOnUse">
<stop stop-color="white" stop-opacity="0.22"/>
<stop offset="1" stop-color="white" stop-opacity="0"/>
</linearGradient>
<linearGradient id="paint23_linear_205_3923" x1="1293.38" y1="295.949" x2="1293.38" y2="411.97" gradientUnits="userSpaceOnUse">
<stop stop-color="white" stop-opacity="0.22"/>
<stop offset="1" stop-color="white" stop-opacity="0"/>
</linearGradient>
<linearGradient id="paint24_linear_205_3923" x1="1529.38" y1="259.488" x2="1529.38" y2="521.418" gradientUnits="userSpaceOnUse">
<stop stop-color="white" stop-opacity="0.22"/>
<stop offset="1" stop-color="white" stop-opacity="0"/>
</linearGradient>
<linearGradient id="paint25_linear_205_3923" x1="1613.55" y1="301.339" x2="1613.55" y2="455.843" gradientUnits="userSpaceOnUse">
<stop stop-color="white" stop-opacity="0.22"/>
<stop offset="1" stop-color="white" stop-opacity="0"/>
</linearGradient>
<linearGradient id="paint26_linear_205_3923" x1="885.225" y1="279.852" x2="885.225" y2="393.533" gradientUnits="userSpaceOnUse">
<stop stop-color="white" stop-opacity="0.22"/>
<stop offset="1" stop-color="white" stop-opacity="0"/>
</linearGradient>
<linearGradient id="paint27_linear_205_3923" x1="292.465" y1="253.672" x2="292.465" y2="550.016" gradientUnits="userSpaceOnUse">
<stop stop-color="white" stop-opacity="0.22"/>
<stop offset="1" stop-color="white" stop-opacity="0"/>
</linearGradient>
<linearGradient id="paint28_linear_205_3923" x1="821.748" y1="295.213" x2="821.748" y2="430.776" gradientUnits="userSpaceOnUse">
<stop stop-color="white" stop-opacity="0.22"/>
<stop offset="1" stop-color="white" stop-opacity="0"/>
</linearGradient>
<linearGradient id="paint29_linear_205_3923" x1="1425.25" y1="136.615" x2="1425.25" y2="262.392" gradientUnits="userSpaceOnUse">
<stop stop-color="white" stop-opacity="0.22"/>
<stop offset="1" stop-color="white" stop-opacity="0"/>
</linearGradient>
<linearGradient id="paint30_linear_205_3923" x1="1532.25" y1="271.653" x2="1532.25" y2="559.436" gradientUnits="userSpaceOnUse">
<stop stop-color="white" stop-opacity="0.22"/>
<stop offset="1" stop-color="white" stop-opacity="0"/>
</linearGradient>
<linearGradient id="paint31_linear_205_3923" x1="458.009" y1="378.76" x2="458.009" y2="480.788" gradientUnits="userSpaceOnUse">
<stop stop-color="white" stop-opacity="0.22"/>
<stop offset="1" stop-color="white" stop-opacity="0"/>
</linearGradient>
<linearGradient id="paint32_linear_205_3923" x1="863.211" y1="259.214" x2="863.211" y2="351.584" gradientUnits="userSpaceOnUse">
<stop stop-color="white" stop-opacity="0.22"/>
<stop offset="1" stop-color="white" stop-opacity="0"/>
</linearGradient>
<linearGradient id="paint33_linear_205_3923" x1="194.933" y1="358.294" x2="194.933" y2="604.575" gradientUnits="userSpaceOnUse">
<stop stop-color="white" stop-opacity="0.22"/>
<stop offset="1" stop-color="white" stop-opacity="0"/>
</linearGradient>
<linearGradient id="paint34_linear_205_3923" x1="1467.5" y1="234.744" x2="1467.5" y2="547.851" gradientUnits="userSpaceOnUse">
<stop stop-color="white" stop-opacity="0.22"/>
<stop offset="1" stop-color="white" stop-opacity="0"/>
</linearGradient>
<linearGradient id="paint35_linear_205_3923" x1="635.931" y1="372.006" x2="635.931" y2="458.541" gradientUnits="userSpaceOnUse">
<stop stop-color="white" stop-opacity="0.22"/>
<stop offset="1" stop-color="white" stop-opacity="0"/>
</linearGradient>
<linearGradient id="paint36_linear_205_3923" x1="250.765" y1="422.51" x2="250.765" y2="688.161" gradientUnits="userSpaceOnUse">
<stop stop-color="white" stop-opacity="0.22"/>
<stop offset="1" stop-color="white" stop-opacity="0"/>
</linearGradient>
<linearGradient id="paint37_linear_205_3923" x1="1378.2" y1="241.662" x2="1378.2" y2="407.9" gradientUnits="userSpaceOnUse">
<stop stop-color="white" stop-opacity="0.22"/>
<stop offset="1" stop-color="white" stop-opacity="0"/>
</linearGradient>
<linearGradient id="paint38_linear_205_3923" x1="89.7498" y1="370.636" x2="89.7498" y2="656.577" gradientUnits="userSpaceOnUse">
<stop stop-color="white" stop-opacity="0.22"/>
<stop offset="1" stop-color="white" stop-opacity="0"/>
</linearGradient>
<linearGradient id="paint39_linear_205_3923" x1="1276.25" y1="298.91" x2="1276.25" y2="614.777" gradientUnits="userSpaceOnUse">
<stop stop-color="white" stop-opacity="0.22"/>
<stop offset="1" stop-color="white" stop-opacity="0"/>
</linearGradient>
<linearGradient id="paint40_linear_205_3923" x1="1448.55" y1="204.704" x2="1448.55" y2="394.023" gradientUnits="userSpaceOnUse">
<stop stop-color="white" stop-opacity="0.22"/>
<stop offset="1" stop-color="white" stop-opacity="0"/>
</linearGradient>
<linearGradient id="paint41_linear_205_3923" x1="1361.78" y1="346.196" x2="1361.78" y2="637.065" gradientUnits="userSpaceOnUse">
<stop stop-color="white" stop-opacity="0.22"/>
<stop offset="1" stop-color="white" stop-opacity="0"/>
</linearGradient>
<linearGradient id="paint42_linear_205_3923" x1="768.611" y1="340.156" x2="768.611" y2="448.022" gradientUnits="userSpaceOnUse">
<stop stop-color="white" stop-opacity="0.22"/>
<stop offset="1" stop-color="white" stop-opacity="0"/>
</linearGradient>
<linearGradient id="paint43_linear_205_3923" x1="1235.19" y1="230.993" x2="1235.19" y2="419.609" gradientUnits="userSpaceOnUse">
<stop stop-color="white" stop-opacity="0.22"/>
<stop offset="1" stop-color="white" stop-opacity="0"/>
</linearGradient>
<linearGradient id="paint44_linear_205_3923" x1="773.579" y1="296.656" x2="773.579" y2="571.208" gradientUnits="userSpaceOnUse">
<stop stop-color="white" stop-opacity="0.22"/>
<stop offset="1" stop-color="white" stop-opacity="0"/>
</linearGradient>
<linearGradient id="paint45_linear_205_3923" x1="1049.08" y1="317.965" x2="1049.08" y2="499.675" gradientUnits="userSpaceOnUse">
<stop stop-color="white" stop-opacity="0.22"/>
<stop offset="1" stop-color="white" stop-opacity="0"/>
</linearGradient>
<linearGradient id="paint46_linear_205_3923" x1="346.616" y1="348.253" x2="346.616" y2="567.67" gradientUnits="userSpaceOnUse">
<stop stop-color="white" stop-opacity="0.22"/>
<stop offset="1" stop-color="white" stop-opacity="0"/>
</linearGradient>
<linearGradient id="paint47_linear_205_3923" x1="1203.26" y1="194.547" x2="1203.26" y2="301.36" gradientUnits="userSpaceOnUse">
<stop stop-color="white" stop-opacity="0.22"/>
<stop offset="1" stop-color="white" stop-opacity="0"/>
</linearGradient>
<linearGradient id="paint48_linear_205_3923" x1="751.521" y1="284.573" x2="751.521" y2="422.31" gradientUnits="userSpaceOnUse">
<stop stop-color="white" stop-opacity="0.22"/>
<stop offset="1" stop-color="white" stop-opacity="0"/>
</linearGradient>
<linearGradient id="paint49_linear_205_3923" x1="645.281" y1="304.556" x2="645.281" y2="444.64" gradientUnits="userSpaceOnUse">
<stop stop-color="white" stop-opacity="0.22"/>
<stop offset="1" stop-color="white" stop-opacity="0"/>
</linearGradient>
<linearGradient id="paint50_linear_205_3923" x1="1160.36" y1="248.256" x2="1160.36" y2="409.161" gradientUnits="userSpaceOnUse">
<stop stop-color="white" stop-opacity="0.22"/>
<stop offset="1" stop-color="white" stop-opacity="0"/>
</linearGradient>
<linearGradient id="paint51_linear_205_3923" x1="873.606" y1="274.361" x2="873.606" y2="424.435" gradientUnits="userSpaceOnUse">
<stop stop-color="white" stop-opacity="0.22"/>
<stop offset="1" stop-color="white" stop-opacity="0"/>
</linearGradient>
<linearGradient id="paint52_linear_205_3923" x1="305.065" y1="374.42" x2="305.065" y2="488.824" gradientUnits="userSpaceOnUse">
<stop stop-color="white" stop-opacity="0.22"/>
<stop offset="1" stop-color="white" stop-opacity="0"/>
</linearGradient>
<linearGradient id="paint53_linear_205_3923" x1="1562.56" y1="68.371" x2="1562.56" y2="505.654" gradientUnits="userSpaceOnUse">
<stop stop-color="white" stop-opacity="0.22"/>
<stop offset="1" stop-color="white" stop-opacity="0"/>
</linearGradient>
<linearGradient id="paint54_linear_205_3923" x1="470.563" y1="334.169" x2="470.563" y2="605.857" gradientUnits="userSpaceOnUse">
<stop stop-color="white" stop-opacity="0.22"/>
<stop offset="1" stop-color="white" stop-opacity="0"/>
</linearGradient>
<linearGradient id="paint55_linear_205_3923" x1="1493.54" y1="151.113" x2="1493.54" y2="354.991" gradientUnits="userSpaceOnUse">
<stop stop-color="white" stop-opacity="0.22"/>
<stop offset="1" stop-color="white" stop-opacity="0"/>
</linearGradient>
<linearGradient id="paint56_linear_205_3923" x1="1533.32" y1="102.773" x2="1533.32" y2="384.25" gradientUnits="userSpaceOnUse">
<stop stop-color="white" stop-opacity="0.22"/>
<stop offset="1" stop-color="white" stop-opacity="0"/>
</linearGradient>
<linearGradient id="paint57_linear_205_3923" x1="984.723" y1="237.205" x2="984.723" y2="511.335" gradientUnits="userSpaceOnUse">
<stop stop-color="white" stop-opacity="0.22"/>
<stop offset="1" stop-color="white" stop-opacity="0"/>
</linearGradient>
<linearGradient id="paint58_linear_205_3923" x1="1007.71" y1="255.309" x2="1007.71" y2="416.332" gradientUnits="userSpaceOnUse">
<stop stop-color="white" stop-opacity="0.22"/>
<stop offset="1" stop-color="white" stop-opacity="0"/>
</linearGradient>
</defs>
</svg>
